<svg height="50" id="el3XKHxFGAJ1" xmlns="http://www.w3.org/2000/svg" xmlns:xlink="http://www.w3.org/1999/xlink" viewBox="0 0 200 200" shape-rendering="geometricPrecision" text-rendering="geometricPrecision"><g transform="matrix(.895204 0 0 0.895204-18.292912-72.342973)"><path d="M205.037985,312.621823v-60.348974q8.275421-5.415934,8.275421-4.642229t-.919492,57.254155" transform="matrix(.845682 0 0 0.921714-106.765911-13.595375)" fill="none" stroke="#3f5787" stroke-width="4"/><path d="M217.693661,247.854536l-.744451,55.089416.744451-55.089416Z" transform="translate(-138.923931-35.621521)" fill="none" stroke="#3f5787" stroke-width="4"/><path d="M224.393725,244.132279l-.744451,59.556125.744451-59.556125Z" transform="translate(-138.923931-35.621519)" fill="none" stroke="#3f5787" stroke-width="4"/><path d="M212.686555,250.270756l18.407234-9.860735v81.889672" transform="translate(-138.923933-35.621521)" fill="none" stroke="#3f5787" stroke-width="4"/><path d="M231.757389,241.45691l21.079007,10.220125.638757,57.488198" transform="translate(-138.923932-35.621519)" fill="none" stroke="#3f5787" stroke-width="4"/><path d="M279.025465,309.165234l-.638758-58.765715l22.356522-10.858883-.638758,66.430808" transform="translate(-138.923933-35.62152)" fill="none" stroke="#3f5787" stroke-width="4"/><path d="M325.654782,300.222625l-1.277516-49.823106-24.272795-10.220124" transform="translate(-138.923932-35.621521)" fill="none" stroke="#3f5787" stroke-width="4"/><path d="M294.355651,245.289457l-1.277516,56.210684" transform="translate(-138.923933-35.621521)" fill="none" stroke="#3f5787" stroke-width="4"/><path d="M287.968073,247.20573v53.016895" transform="translate(-138.923933-35.62152)" fill="none" stroke="#3f5787" stroke-width="4"/><path d="M284.135527,248.483246l-.638758,51.100621" transform="translate(-138.923933-35.621521)" fill="none" stroke="#3f5787" stroke-width="4"/><path d="M237.506209,243.373184v-28.105342l28.7441-12.136398.638758,105.395032" transform="translate(-138.923933-35.621521)" fill="none" stroke="#3f5787" stroke-width="4"/><path d="M265.611551,212.074053l-17.24646,6.387577" transform="translate(-138.923933-35.62152)" fill="none" stroke="#3f5787" stroke-width="4"/><path d="M265.611551,221.016662l-17.885217,5.748819" transform="translate(-138.923932-35.62152)" fill="none" stroke="#3f5787" stroke-width="4"/><path d="M265.611551,229.320513l-17.885217,6.387577" transform="translate(-138.923932-35.62152)" fill="none" stroke="#3f5787" stroke-width="4"/><path d="M269.444098,211.435295l14.691429,6.387578" transform="translate(-138.923933-35.621521)" fill="none" stroke="#3f5787" stroke-width="4"/><path d="M268.166582,221.655419l14.691429,4.471305" transform="translate(-138.923932-35.62152)" fill="none" stroke="#3f5787" stroke-width="4"/><path d="M268.166582,230.598028l15.330187,3.832547" transform="translate(-138.923933-35.62152)" fill="none" stroke="#3f5787" stroke-width="4"/><path d="M244.524255,210.814138v-17.364824l22.326202-9.302584-.600148,18.984714l29.382859,12.136398l1.277515,22.356522" transform="translate(-138.923933-35.621521)" fill="none" stroke="#3f5787" stroke-width="4"/><path d="M260.028562,192.20897l-19.845513,5.58155" transform="translate(-138.923933-35.621521)" fill="none" stroke="#3f5787" stroke-width="4"/><path d="M257.547873,197.79052l-16.744652,4.961379" transform="translate(-138.923933-35.62152)" fill="none" stroke="#3f5787" stroke-width="4"/><path d="M257.547873,202.131726l-17.364824,6.821895" transform="translate(-138.923933-35.621521)" fill="none" stroke="#3f5787" stroke-width="4"/><path d="M273.05218,190.968625q.620172,0,19.225341,6.821895" transform="translate(-138.923932-35.62152)" fill="none" stroke="#3f5787" stroke-width="4"/><path d="M273.672352,194.689659l17.984996,7.442067" transform="translate(-138.923933-35.621521)" fill="none" stroke="#3f5787" stroke-width="4"/><path d="M274.292524,200.891382l16.744652,6.821895" transform="translate(-138.923933-35.621521)" fill="none" stroke="#3f5787" stroke-width="4"/><path d="M250.725978,189.728281v-40.931371l14.884134-10.54293l16.12448,11.1631.620172,40.311198" transform="translate(-138.923933-35.621517)" fill="none" stroke="#3f5787" stroke-width="4"/><path d="M265.610112,122.129501l.620174,62.637401l21.70603,7.442069l1.860517,19.845513" transform="translate(-138.923932-35.62152)" fill="none" stroke="#3f5787" stroke-width="4"/><path d="M261.889079,141.975014v31.628787" transform="translate(-138.923933-35.621521)" fill="none" stroke="#3f5787" stroke-width="4"/><path d="M255.687356,145.075876v32.869131" transform="translate(-138.923933-35.62152)" fill="none" stroke="#3f5787" stroke-width="4"/><path d="M274.292524,142.595187l-1.240344,32.248959" transform="translate(-138.923933-35.621521)" fill="none" stroke="#3f5787" stroke-width="4"/><path d="M279.253903,146.936393l-1.860517,27.907753" transform="translate(-138.923932-35.62152)" fill="none" stroke="#3f5787" stroke-width="4"/><path d="M202.35254,295.15757c-60.74491,24.29798,19.748363,32.357011,40.311198,34.729646c16.124479,1.860517,27.612612,2.480684,40.931372,2.480684c1.70609,0,19.84551-1.24034,19.84551-1.24034s-5.113375,2.48875-6.158616,2.625086c-11.217637,1.46317-5.800548.630785-16.745168,1.625745-1.04976.09543-11.467782.400183-12.518232.487723-1.44207.12017-7.169376,0-8.616446,0-31.08566,0-53.426773-2.857365-82.476683-13.420965-42.20881-15.34866,10.704199-27.547795,25.250479-27.547795" transform="translate(-138.923933-35.62152)" fill="#a5dc6f" stroke="#3f5787" stroke-width="4"/><path d="M323.96676,278.52167c4.30937.86187,12.641353,6.416581,14.965963,10.600891c8.12642,14.62755-49.671798,21.843007-59.863848,23.696107-10.30813,1.87421-25.703765,4.365072-36.167745,4.365072-4.36507,0-8.73014,0-13.09522,0-1.0393,0-3.11791-1.0393-3.11791,0c0,2.23873,4.04057,2.05528,6.23582,2.49433c7.7802,1.55604,13.855137,1.870742,21.825367,1.870742c1.24716,0,9.977311-.623582,11.224471-.623582c17.16782,0,75.805486-10.913389,90.419354-18.707452c18.707452-9.977308,6.235817-15.589544-15.589544-24.319688-1.317203-.526881-26.190438-4.84858-26.190438-4.36507c0,1.27353,8.21471,4.53305,9.35373,4.98865" transform="matrix(1 0 0 1.007625-127.365554-32.638839)" fill="#e38d5d" stroke="#3f5787" stroke-width="4"/></g></svg>
